<?xml version="1.0" encoding="utf-8"?>
<!-- Generator: Adobe Illustrator 15.0.2, SVG Export Plug-In . SVG Version: 6.00 Build 0)  -->
<!DOCTYPE svg PUBLIC "-//W3C//DTD SVG 1.1//EN" "http://www.w3.org/Graphics/SVG/1.1/DTD/svg11.dtd">
<svg version="1.1" id="Layer_1" xmlns="http://www.w3.org/2000/svg" xmlns:xlink="http://www.w3.org/1999/xlink" x="0px" y="0px"
	 width="1920px" height="640px" viewBox="0 0 1920 640" enable-background="new 0 0 1920 640" xml:space="preserve">
<path fill="#F1F2F2" d="M648.499,445.533c175.335,0,263.777-41.938,349.212-82.485c77.361-36.744,150.461-71.425,299.418-71.425
	c148.893,0,222.025,34.681,299.387,71.425c85.45,40.548,173.783,82.485,349.196,82.485c15.142,0,29.435-0.362,43.415-1.018
	l21.724-97.566c-20.156,1.585-41.409,2.789-65.014,2.789c-148.926,0-222.024-34.69-299.388-71.327
	c-85.48-40.547-173.783-82.499-349.227-82.499s-263.763,41.952-349.212,82.499c-77.362,36.73-150.477,71.327-299.402,71.327
	c-148.925,0-221.931-34.69-299.309-71.327c-85.434-40.547-173.767-82.499-349.102-82.499v95.799
	c148.925,0,221.93,34.686,299.293,71.425C384.831,403.596,473.164,445.533,648.499,445.533"/>
<path fill="#F1F2F2" d="M648.499,251.81c175.335,0,263.777-41.947,349.212-82.495c77.361-36.735,150.461-71.337,299.418-71.337
	c148.893,0,222.025,34.695,299.387,71.337c85.45,40.548,173.783,82.495,349.196,82.495c31.816,0,60.624-1.395,87.111-3.91
	l22.161-99.598c-31.784,4.825-67.3,7.806-109.335,7.806c-148.956,0-222.057-34.695-299.449-71.332
	c-85.42-40.553-173.753-82.495-349.196-82.495c-175.413,0-263.778,41.942-349.212,82.495
	c-77.347,36.735-150.461,71.332-299.387,71.332c-148.925,0-221.946-34.695-299.309-71.332C263.661,44.224,175.328,2.282-0.006,2.282
	v95.794c148.926,0,221.931,34.695,299.293,71.333C384.831,209.863,473.164,251.81,648.499,251.81"/>
<path fill="#F1F2F2" d="M1945.649,639.169l21.378-96.451c-7.21,0.186-13.824,0.655-21.378,0.655
	c-148.956,0-222.057-34.694-299.449-71.337c-85.42-40.558-173.847-82.494-349.196-82.494c-175.32,0-263.778,41.937-349.212,82.494
	c-77.347,36.74-150.461,71.337-299.387,71.337c-148.925,0-221.946-34.694-299.309-71.337
	c-85.435-40.558-173.768-82.494-349.102-82.494v95.785c148.926,0,221.931,34.694,299.293,71.424
	c85.45,40.568,173.783,82.505,349.118,82.505c175.335,0,263.778-41.937,349.212-82.505c77.362-36.729,150.462-71.424,299.388-71.424
	c148.924,0,222.056,34.694,299.387,71.424C1681.84,597.319,1770.204,639.169,1945.649,639.169"/>
</svg>
