<?xml version="1.0" encoding="utf-8"?>
<!-- Generator: Adobe Illustrator 23.0.3, SVG Export Plug-In . SVG Version: 6.00 Build 0)  -->
<svg version="1.1" id="Layer_1" xmlns="http://www.w3.org/2000/svg" xmlns:xlink="http://www.w3.org/1999/xlink" x="0px" y="0px"
	 viewBox="0 0 595.28 841.89" style="enable-background:new 0 0 595.28 841.89;" xml:space="preserve">
<style type="text/css">
	.st0{fill:#EDEDEE;}
	.st1{fill:#FFFFFF;}
</style>
<rect x="1" y="133" class="st0" width="595.28" height="280.63"/>
<path class="st1" d="M476.47,249.76c16.93,0,25.47-4.51,33.72-8.87c7.47-3.95,14.53-7.68,28.91-7.68c14.38,0,21.44,3.73,28.91,7.68
	c8.25,4.36,16.78,8.87,33.72,8.87c1.46,0,2.84-0.04,4.19-0.11l2.1-10.49c-1.95,0.17-4,0.3-6.28,0.3c-14.38,0-21.44-3.73-28.91-7.67
	c-8.25-4.36-16.78-8.87-33.72-8.87s-25.47,4.51-33.72,8.87c-7.47,3.95-14.53,7.67-28.91,7.67c-14.38,0-21.43-3.73-28.9-7.67
	c-8.25-4.36-16.78-8.87-33.71-8.87v10.3c14.38,0,21.43,3.73,28.9,7.68C451.01,245.25,459.54,249.76,476.47,249.76"/>
<path class="st1" d="M476.47,228.93c16.93,0,25.47-4.51,33.72-8.87c7.47-3.95,14.53-7.67,28.91-7.67c14.38,0,21.44,3.73,28.91,7.67
	c8.25,4.36,16.78,8.87,33.72,8.87c3.07,0,5.85-0.15,8.41-0.42l2.14-10.71c-3.07,0.52-6.5,0.84-10.56,0.84
	c-14.38,0-21.44-3.73-28.91-7.67c-8.25-4.36-16.78-8.87-33.72-8.87s-25.47,4.51-33.72,8.87c-7.47,3.95-14.53,7.67-28.91,7.67
	c-14.38,0-21.43-3.73-28.9-7.67c-8.25-4.36-16.78-8.87-33.71-8.87v10.3c14.38,0,21.43,3.73,28.9,7.67
	C451.01,224.42,459.54,228.93,476.47,228.93"/>
<path class="st1" d="M601.72,270.58l2.07-10.37c-0.7,0.02-1.34,0.07-2.07,0.07c-14.38,0-21.44-3.73-28.91-7.67
	c-8.25-4.36-16.79-8.87-33.72-8.87c-16.93,0-25.47,4.51-33.72,8.87c-7.47,3.95-14.53,7.67-28.91,7.67c-14.38,0-21.43-3.73-28.9-7.67
	c-8.25-4.36-16.78-8.87-33.71-8.87v10.3c14.38,0,21.43,3.73,28.9,7.68c8.25,4.36,16.78,8.87,33.71,8.87
	c16.93,0,25.47-4.51,33.72-8.87c7.47-3.95,14.53-7.68,28.91-7.68c14.38,0,21.44,3.73,28.91,7.68
	C576.25,266.08,584.78,270.58,601.72,270.58"/>
</svg>
