<!-- Generated by IcoMoon.io -->
<svg version="1.1" xmlns="http://www.w3.org/2000/svg" width="64" height="64" viewBox="0 0 64 64">
<title>cancel_presentation</title>
<path fill="#03b2aa" d="M38.875 21.375l3.75 3.75-6.875 6.875 6.875 6.875-3.75 3.75-6.875-6.875-6.875 6.875-3.75-3.75 6.875-6.875-6.875-6.875 3.75-3.75 6.875 6.875zM56 8q2.125 0 3.75 1.625t1.625 3.75v37.25q0 2.125-1.625 3.75t-3.75 1.625h-48q-2.125 0-3.75-1.625t-1.625-3.75v-37.25q0-2.125 1.625-3.75t3.75-1.625h48zM56 50.875v-37.5h-48v37.5h48z"></path>
</svg>
