<!-- Generated by IcoMoon.io -->
<svg version="1.1" xmlns="http://www.w3.org/2000/svg" width="55" height="64" viewBox="0 0 55 64">
<title>check-circle</title>
<path fill="#03b2aa" d="M45.857 26.214c0-0.607-0.214-1.214-0.643-1.643l-3.25-3.214c-0.429-0.429-1-0.679-1.607-0.679s-1.179 0.25-1.607 0.679l-14.571 14.536-8.071-8.071c-0.429-0.429-1-0.679-1.607-0.679s-1.179 0.25-1.607 0.679l-3.25 3.214c-0.429 0.429-0.643 1.036-0.643 1.643s0.214 1.179 0.643 1.607l12.929 12.929c0.429 0.429 1.036 0.679 1.607 0.679 0.607 0 1.214-0.25 1.643-0.679l19.393-19.393c0.429-0.429 0.643-1 0.643-1.607zM54.857 32c0 15.143-12.286 27.429-27.429 27.429s-27.429-12.286-27.429-27.429 12.286-27.429 27.429-27.429 27.429 12.286 27.429 27.429z"></path>
</svg>
