<!-- Generated by IcoMoon.io -->
<svg version="1.1" xmlns="http://www.w3.org/2000/svg" width="64" height="64" viewBox="0 0 64 64">
<title>copyright</title>
<path fill="#03b2aa" d="M32 53.375q8.75 0 15.063-6.313t6.313-15.063-6.313-15.063-15.063-6.313-15.063 6.313-6.313 15.063 6.313 15.063 15.063 6.313zM32 5.375q11 0 18.813 7.813t7.813 18.813-7.813 18.813-18.813 7.813-18.813-7.813-7.813-18.813 7.813-18.813 18.813-7.813zM31.625 24.375q-5 0-5 7.25v0.75q0 7.25 5 7.25 1.875 0 3.125-1.063t1.25-2.688h4.75q0 3.125-2.75 5.5-2.625 2.25-6.375 2.25-5 0-7.625-3t-2.625-8.25v-0.75q0-5.125 2.5-8 3-3.375 7.75-3.375 4.125 0 6.5 2.375 2.625 2.625 2.625 6.125h-4.75q0-0.875-0.375-1.625-0.625-1.25-0.875-1.5-1.25-1.25-3.125-1.25z"></path>
</svg>
