<!-- Generated by IcoMoon.io -->
<svg version="1.1" xmlns="http://www.w3.org/2000/svg" width="64" height="64" viewBox="0 0 64 64">
<title>help_outline</title>
<path fill="#03b2aa" d="M32 16q4.375 0 7.5 3.125t3.125 7.5q0 3.375-4 6.938t-4 6.438h-5.25q0-2.875 1.25-4.938t2.75-3 2.75-2.313 1.25-3.125q0-2.125-1.625-3.688t-3.75-1.563-3.75 1.563-1.625 3.688h-5.25q0-4.375 3.125-7.5t7.5-3.125zM32 53.375q8.75 0 15.063-6.313t6.313-15.063-6.313-15.063-15.063-6.313-15.063 6.313-6.313 15.063 6.313 15.063 15.063 6.313zM32 5.375q11 0 18.813 7.813t7.813 18.813-7.813 18.813-18.813 7.813-18.813-7.813-7.813-18.813 7.813-18.813 18.813-7.813zM29.375 48v-5.375h5.25v5.375h-5.25z"></path>
</svg>
