<!-- Generated by IcoMoon.io -->
<svg version="1.1" xmlns="http://www.w3.org/2000/svg" width="64" height="64" viewBox="0 0 64 64">
<title>highlight_remove</title>
<path fill="#03b2aa" d="M32 53.375q8.75 0 15.063-6.313t6.313-15.063-6.313-15.063-15.063-6.313-15.063 6.313-6.313 15.063 6.313 15.063 15.063 6.313zM32 5.375q11 0 18.813 7.813t7.813 18.813-7.813 18.813-18.813 7.813-18.813-7.813-7.813-18.813 7.813-18.813 18.813-7.813zM38.875 21.375l3.75 3.75-6.875 6.875 6.875 6.875-3.75 3.75-6.875-6.875-6.875 6.875-3.75-3.75 6.875-6.875-6.875-6.875 3.75-3.75 6.875 6.875z"></path>
</svg>
