<!-- Generated by IcoMoon.io -->
<svg version="1.1" xmlns="http://www.w3.org/2000/svg" width="55" height="64" viewBox="0 0 55 64">
<title>minus-square</title>
<path fill="#03b2aa" d="M45.714 34.286v-4.571c0-1.25-1.036-2.286-2.286-2.286h-32c-1.25 0-2.286 1.036-2.286 2.286v4.571c0 1.25 1.036 2.286 2.286 2.286h32c1.25 0 2.286-1.036 2.286-2.286zM54.857 14.857v34.286c0 5.679-4.607 10.286-10.286 10.286h-34.286c-5.679 0-10.286-4.607-10.286-10.286v-34.286c0-5.679 4.607-10.286 10.286-10.286h34.286c5.679 0 10.286 4.607 10.286 10.286z"></path>
</svg>
