<!-- Generated by IcoMoon.io -->
<svg version="1.1" xmlns="http://www.w3.org/2000/svg" width="50" height="64" viewBox="0 0 50 64">
<title>minus-square-o</title>
<path fill="#03b2aa" d="M41.143 28.571v2.286c0 0.643-0.5 1.143-1.143 1.143h-29.714c-0.643 0-1.143-0.5-1.143-1.143v-2.286c0-0.643 0.5-1.143 1.143-1.143h29.714c0.643 0 1.143 0.5 1.143 1.143zM45.714 44.571v-29.714c0-3.143-2.571-5.714-5.714-5.714h-29.714c-3.143 0-5.714 2.571-5.714 5.714v29.714c0 3.143 2.571 5.714 5.714 5.714h29.714c3.143 0 5.714-2.571 5.714-5.714zM50.286 14.857v29.714c0 5.679-4.607 10.286-10.286 10.286h-29.714c-5.679 0-10.286-4.607-10.286-10.286v-29.714c0-5.679 4.607-10.286 10.286-10.286h29.714c5.679 0 10.286 4.607 10.286 10.286z"></path>
</svg>
