<!-- Generated by IcoMoon.io -->
<svg version="1.1" xmlns="http://www.w3.org/2000/svg" width="55" height="64" viewBox="0 0 55 64">
<title>plus-circle</title>
<path fill="#03b2aa" d="M43.429 34.286v-4.571c0-1.25-1.036-2.286-2.286-2.286h-9.143v-9.143c0-1.25-1.036-2.286-2.286-2.286h-4.571c-1.25 0-2.286 1.036-2.286 2.286v9.143h-9.143c-1.25 0-2.286 1.036-2.286 2.286v4.571c0 1.25 1.036 2.286 2.286 2.286h9.143v9.143c0 1.25 1.036 2.286 2.286 2.286h4.571c1.25 0 2.286-1.036 2.286-2.286v-9.143h9.143c1.25 0 2.286-1.036 2.286-2.286zM54.857 32c0 15.143-12.286 27.429-27.429 27.429s-27.429-12.286-27.429-27.429 12.286-27.429 27.429-27.429 27.429 12.286 27.429 27.429z"></path>
</svg>
