<!-- Generated by IcoMoon.io -->
<svg version="1.1" xmlns="http://www.w3.org/2000/svg" width="64" height="64" viewBox="0 0 64 64">
<title>radio_button_checked</title>
<path fill="#03b2aa" d="M32 53.375q8.75 0 15.063-6.313t6.313-15.063-6.313-15.063-15.063-6.313-15.063 6.313-6.313 15.063 6.313 15.063 15.063 6.313zM32 5.375q11 0 18.813 7.813t7.813 18.813-7.813 18.813-18.813 7.813-18.813-7.813-7.813-18.813 7.813-18.813 18.813-7.813zM32 18.625q5.5 0 9.438 3.938t3.938 9.438-3.938 9.438-9.438 3.938-9.438-3.938-3.938-9.438 3.938-9.438 9.438-3.938z"></path>
</svg>
