<!-- Generated by IcoMoon.io -->
<svg version="1.1" xmlns="http://www.w3.org/2000/svg" width="55" height="64" viewBox="0 0 55 64">
<title>times-circle</title>
<path fill="#03b2aa" d="M41.036 40.071c0-0.607-0.25-1.179-0.679-1.607l-6.464-6.464 6.464-6.464c0.429-0.429 0.679-1 0.679-1.607s-0.25-1.214-0.679-1.643l-3.214-3.214c-0.429-0.429-1.036-0.679-1.643-0.679s-1.179 0.25-1.607 0.679l-6.464 6.464-6.464-6.464c-0.429-0.429-1-0.679-1.607-0.679s-1.214 0.25-1.643 0.679l-3.214 3.214c-0.429 0.429-0.679 1.036-0.679 1.643s0.25 1.179 0.679 1.607l6.464 6.464-6.464 6.464c-0.429 0.429-0.679 1-0.679 1.607s0.25 1.214 0.679 1.643l3.214 3.214c0.429 0.429 1.036 0.679 1.643 0.679s1.179-0.25 1.607-0.679l6.464-6.464 6.464 6.464c0.429 0.429 1 0.679 1.607 0.679s1.214-0.25 1.643-0.679l3.214-3.214c0.429-0.429 0.679-1.036 0.679-1.643zM54.857 32c0 15.143-12.286 27.429-27.429 27.429s-27.429-12.286-27.429-27.429 12.286-27.429 27.429-27.429 27.429 12.286 27.429 27.429z"></path>
</svg>
