<?xml version="1.0" encoding="utf-8"?>
<!-- Generator: Adobe Illustrator 23.0.3, SVG Export Plug-In . SVG Version: 6.00 Build 0)  -->
<svg version="1.1" id="Layer_1" xmlns="http://www.w3.org/2000/svg" xmlns:xlink="http://www.w3.org/1999/xlink" x="0px" y="0px"
	 viewBox="0 0 595.28 841.89" style="enable-background:new 0 0 595.28 841.89;" xml:space="preserve">
<style type="text/css">
	.st0{fill:#EDEDED;}
	.st1{fill:#355E7F;}
	.st2{fill:#575756;}
	.st3{clip-path:url(#SVGID_2_);fill:#89CCCA;}
	.st4{fill:#89CCCA;}
	.st5{clip-path:url(#SVGID_4_);fill:#97A4B8;}
	.st6{clip-path:url(#SVGID_4_);fill:#355E7F;}
	.st7{clip-path:url(#SVGID_6_);fill:#355E7F;}
	.st8{clip-path:url(#SVGID_8_);fill:#355E7F;}
	.st9{clip-path:url(#SVGID_10_);fill:#355E7F;}
	.st10{clip-path:url(#SVGID_10_);fill:#89CCCA;}
	.st11{clip-path:url(#SVGID_12_);fill:#97A4B8;}
	.st12{clip-path:url(#SVGID_12_);fill:#355E7F;}
	.st13{clip-path:url(#SVGID_14_);fill:#355E7F;}
	.st14{clip-path:url(#SVGID_16_);fill:#355E7F;}
	.st15{clip-path:url(#SVGID_18_);fill:#355E7F;}
	.st16{clip-path:url(#SVGID_18_);fill:#FFFFFF;}
	.st17{fill:#FFFFFF;}
	.st18{clip-path:url(#SVGID_20_);fill:#FFFFFF;}
	.st19{clip-path:url(#SVGID_22_);fill:#FFFFFF;}
	.st20{clip-path:url(#SVGID_24_);fill:#FFFFFF;}
	.st21{clip-path:url(#SVGID_26_);fill:#FFFFFF;}
	.st22{clip-path:url(#SVGID_26_);fill:#89CCCA;}
	.st23{clip-path:url(#SVGID_28_);fill:#97A4B8;}
	.st24{clip-path:url(#SVGID_28_);fill:#FFFFFF;}
	.st25{clip-path:url(#SVGID_30_);fill:#FFFFFF;}
	.st26{clip-path:url(#SVGID_32_);fill:#FFFFFF;}
	.st27{clip-path:url(#SVGID_34_);fill:#FFFFFF;}
	.st28{clip-path:url(#SVGID_34_);fill:#575756;}
	.st29{clip-path:url(#SVGID_36_);fill:#575756;}
	.st30{clip-path:url(#SVGID_38_);fill:#575756;}
	.st31{clip-path:url(#SVGID_40_);fill:#575756;}
	.st32{clip-path:url(#SVGID_42_);fill:#575756;}
</style>

<g>
	<defs>
		<rect id="SVGID_1_" width="595.28" height="841.89"/>
	</defs>
	<clipPath id="SVGID_2_">
		<use xlink:href="#SVGID_1_"  style="overflow:visible;"/>
	</clipPath>
	<path class="st3" d="M235.22,190.4c-1.06,0.9-1.73,2.12-2.02,3.66h11.94c-0.29-1.54-0.96-2.76-2.02-3.66
		c-1.06-0.9-2.38-1.34-3.95-1.34S236.28,189.5,235.22,190.4 M254.56,199.44h-21.19c0.43,1.51,1.26,2.66,2.5,3.47
		c1.24,0.81,2.79,1.21,4.65,1.21c1.4,0,2.61-0.2,3.63-0.59c1.02-0.39,2.05-1.04,3.09-1.94l5.38,5.59
		c-2.83,3.16-6.97,4.73-12.43,4.73c-3.41,0-6.4-0.65-8.98-1.94c-2.58-1.29-4.58-3.08-6-5.38c-1.42-2.29-2.12-4.89-2.12-7.8
		c0-2.87,0.69-5.44,2.07-7.72c1.38-2.28,3.29-4.06,5.73-5.35c2.44-1.29,5.18-1.94,8.23-1.94c2.9,0,5.54,0.6,7.91,1.8
		c2.37,1.2,4.24,2.94,5.62,5.22c1.38,2.28,2.07,4.98,2.07,8.1C254.72,196.98,254.67,197.82,254.56,199.44"/>
</g>
<polygon class="st4" points="215.77,175.3 205.98,198.31 195.76,173.78 184.25,173.78 200.34,211.43 210.82,211.43 226.31,175.3 "/>
<g>
	<defs>
		<rect id="SVGID_3_" width="595.28" height="841.89"/>
	</defs>
	<clipPath id="SVGID_4_">
		<use xlink:href="#SVGID_3_"  style="overflow:visible;"/>
	</clipPath>
	<path class="st5" d="M259,167.25c-4.51,0-6.72-1.17-9.06-2.4c-2.59-1.37-5.26-2.78-10.57-2.78c-5.31,0-7.98,1.41-10.57,2.78
		c-2.34,1.24-4.55,2.4-9.06,2.4c-4.51,0-6.72-1.17-9.06-2.4c-2-1.06-4.06-2.14-7.35-2.58l-0.64,3.18c2.86,0.35,4.64,1.27,6.48,2.25
		c2.59,1.37,5.26,2.78,10.57,2.78c5.31,0,7.98-1.41,10.57-2.78c2.34-1.24,4.55-2.41,9.06-2.41c4.51,0,6.72,1.17,9.06,2.41
		c2.59,1.37,5.26,2.78,10.57,2.78c0.96,0,1.83-0.05,2.64-0.13l0.67-3.36C261.34,167.15,260.27,167.25,259,167.25"/>
	<path class="st5" d="M249.94,177.9c-2.59-1.37-5.26-2.78-10.57-2.78c-5.31,0-7.98,1.41-10.57,2.78c-2.34,1.24-4.55,2.41-9.06,2.41
		c-4.51,0-6.72-1.17-9.06-2.41c-2.48-1.31-5.04-2.66-9.92-2.77l-0.64,3.22c4.51,0,6.72,1.17,9.06,2.4
		c2.59,1.37,5.26,2.78,10.57,2.78c5.31,0,7.98-1.41,10.57-2.78c2.34-1.24,4.55-2.4,9.06-2.4c4.51,0,6.72,1.17,9.06,2.4
		c2.59,1.37,5.26,2.78,10.57,2.78l0.65-3.25c-0.22,0.01-0.42,0.02-0.65,0.02C254.49,180.3,252.28,179.14,249.94,177.9"/>
	<path class="st5" d="M249.94,171.37c-2.59-1.37-5.26-2.78-10.57-2.78c-5.31,0-7.98,1.41-10.57,2.78c-2.34,1.24-4.55,2.41-9.06,2.41
		c-4.51,0-6.72-1.17-9.06-2.41c-2.25-1.19-4.57-2.41-8.63-2.71l-0.64,3.2c3.65,0.2,5.66,1.25,7.76,2.36
		c2.59,1.37,5.26,2.78,10.57,2.78c5.31,0,7.98-1.41,10.57-2.78c2.34-1.24,4.55-2.4,9.06-2.4c4.51,0,6.72,1.17,9.06,2.4
		c2.59,1.37,5.26,2.78,10.57,2.78c0.46,0,0.89-0.01,1.31-0.03l0.66-3.29c-0.61,0.05-1.25,0.09-1.97,0.09
		C254.49,173.78,252.28,172.61,249.94,171.37"/>
	<path class="st6" d="M282.11,191.53c1.27-1.11,1.91-2.69,1.91-4.73c0-1.54-0.51-2.7-1.53-3.47c-1.02-0.77-2.48-1.16-4.38-1.16
		h-5.59l-2.21,11.03h6.35C279.02,193.2,280.84,192.64,282.11,191.53 M290.8,176.95c2.65,2.12,3.98,5.09,3.98,8.93
		c0,3.16-0.76,5.92-2.29,8.28c-1.52,2.37-3.69,4.2-6.51,5.49c-2.82,1.29-6.09,1.94-9.82,1.94h-7.53l-1.94,9.84h-10.65l7.53-37.65
		h15.92C284.38,173.78,288.15,174.83,290.8,176.95"/>
	<path class="st6" d="M344.72,211.05c-2.8-0.75-5.08-1.72-6.83-2.9l4.2-7.96c1.9,1.22,3.93,2.14,6.08,2.77
		c2.15,0.63,4.3,0.94,6.45,0.94c2.05,0,3.63-0.3,4.76-0.89c1.13-0.59,1.69-1.41,1.69-2.45c0-0.9-0.51-1.6-1.53-2.1
		c-1.02-0.5-2.61-1.04-4.76-1.61c-2.44-0.64-4.46-1.3-6.08-1.96c-1.61-0.66-3-1.68-4.17-3.04c-1.16-1.36-1.75-3.15-1.75-5.38
		c0-2.69,0.73-5.05,2.21-7.07c1.47-2.03,3.57-3.6,6.29-4.71c2.72-1.11,5.92-1.67,9.57-1.67c2.69,0,5.2,0.28,7.53,0.83
		c2.33,0.56,4.34,1.35,6.02,2.39l-3.87,7.91c-1.47-0.93-3.09-1.64-4.87-2.12c-1.78-0.48-3.6-0.72-5.46-0.72
		c-2.12,0-3.77,0.34-4.98,1.02c-1.2,0.68-1.8,1.56-1.8,2.64c0,0.93,0.52,1.65,1.56,2.15c1.04,0.5,2.65,1.04,4.84,1.61
		c2.44,0.61,4.46,1.24,6.05,1.88c1.6,0.65,2.97,1.63,4.11,2.96c1.15,1.33,1.72,3.07,1.72,5.22c0,2.65-0.74,4.99-2.23,7.02
		c-1.49,2.03-3.6,3.6-6.35,4.71c-2.74,1.11-5.93,1.67-9.55,1.67C350.48,212.18,347.52,211.81,344.72,211.05"/>
</g>




<polygon class="st1" points="387.14,182.22 375.58,182.22 377.3,173.78 411.02,173.78 409.3,182.22 397.79,182.22 391.93,211.43 
	381.28,211.43 "/>
<g>
	<defs>
		<rect id="SVGID_5_" width="595.28" height="841.89"/>
	</defs>
	<clipPath id="SVGID_6_">
		<use xlink:href="#SVGID_5_"  style="overflow:visible;"/>
	</clipPath>
	<path class="st7" d="M320.37,193.94c-0.14,0.67-0.57,1.27-1.15,1.66l-0.58,2.87c-0.06,0.29-0.34,0.52-0.63,0.52h-1.65
		c-0.29,0-0.48-0.23-0.42-0.52l0.58-2.87c-0.42-0.39-0.61-0.99-0.48-1.66c0.24-1.17,1.4-2.13,2.59-2.13
		C319.83,191.81,320.6,192.76,320.37,193.94 M315.14,186.59c0.52-2.58,3.17-4.76,5.79-4.76c1.16,0,2.15,0.43,2.78,1.2
		c0.64,0.78,0.86,1.85,0.63,3l-0.46,2.33h-9.09L315.14,186.59z M327.16,188.36h-0.37l0.35-1.77c0.4-2.01-0.03-3.92-1.22-5.38
		c-1.18-1.45-2.96-2.24-4.99-2.24c-4.02,0-7.8,3.1-8.6,7.06l-0.46,2.33h-0.38c-0.89,0-1.76,0.71-1.94,1.6l-2.25,11.17
		c-0.18,0.88,0.4,1.6,1.3,1.6h15.66c0.89,0,1.76-0.71,1.94-1.6l2.25-11.17C328.64,189.07,328.06,188.36,327.16,188.36
		 M305.57,210.09c-2.82-1.4-4.99-3.35-6.51-5.86c-1.53-2.51-2.29-5.38-2.29-8.61c0-4.3,0.99-8.18,2.99-11.62
		c1.99-3.44,4.77-6.13,8.34-8.07c3.57-1.94,7.63-2.9,12.18-2.9c3.8,0,7.11,0.7,9.92,2.1c2.82,1.4,4.98,3.35,6.51,5.86
		c1.52,2.51,2.29,5.38,2.29,8.61c0,4.3-1,8.18-2.99,11.62c-1.99,3.44-4.77,6.13-8.34,8.07c-3.57,1.94-7.63,2.9-12.18,2.9
		C311.69,212.18,308.38,211.48,305.57,210.09"/>
	<path class="st7" d="M254.09,230.98c-0.88-0.27-1.56-0.62-2.06-1.05l0.98-1.81c0.52,0.42,1.14,0.74,1.86,0.99s1.45,0.36,2.2,0.36
		c0.91,0,1.64-0.16,2.18-0.47c0.54-0.31,0.81-0.74,0.81-1.29c0-0.31-0.11-0.57-0.33-0.77c-0.22-0.21-0.49-0.38-0.82-0.51
		c-0.33-0.13-0.78-0.28-1.36-0.45c-0.81-0.24-1.46-0.47-1.95-0.68c-0.5-0.22-0.93-0.55-1.28-0.99c-0.36-0.44-0.53-1.01-0.53-1.71
		c0-0.8,0.23-1.51,0.68-2.11c0.46-0.61,1.09-1.07,1.91-1.41c0.82-0.33,1.76-0.5,2.83-0.5c0.81,0,1.57,0.09,2.29,0.28
		c0.72,0.18,1.34,0.44,1.87,0.77l-0.91,1.83c-0.46-0.31-0.98-0.54-1.56-0.71c-0.58-0.17-1.19-0.25-1.81-0.25
		c-0.92,0-1.66,0.17-2.2,0.51s-0.81,0.79-0.81,1.34c0,0.32,0.11,0.59,0.34,0.8c0.22,0.21,0.5,0.38,0.82,0.51
		c0.32,0.12,0.79,0.28,1.4,0.47c0.78,0.23,1.42,0.45,1.92,0.66c0.5,0.21,0.92,0.53,1.27,0.94c0.35,0.42,0.52,0.96,0.52,1.62
		c0,0.82-0.23,1.53-0.68,2.13c-0.46,0.6-1.1,1.07-1.94,1.4c-0.83,0.33-1.79,0.5-2.87,0.5C255.89,231.39,254.97,231.25,254.09,230.98
		"/>
	<path class="st7" d="M266.83,223.99c-0.53,0.4-0.89,0.96-1.09,1.65h5.44c0.01-0.71-0.2-1.27-0.65-1.66c-0.45-0.4-1.04-0.6-1.79-0.6
		C268,223.39,267.36,223.59,266.83,223.99 M273.08,227.12h-7.54c0.04,1.55,0.95,2.33,2.74,2.33c0.54,0,1.05-0.09,1.53-0.26
		c0.47-0.17,0.88-0.41,1.21-0.72l0.92,1.55c-0.49,0.44-1.07,0.77-1.75,0.99c-0.68,0.22-1.4,0.33-2.14,0.33
		c-0.95,0-1.78-0.17-2.48-0.52c-0.71-0.34-1.25-0.83-1.63-1.47c-0.38-0.63-0.57-1.36-0.57-2.2c0-1.05,0.23-2.01,0.7-2.85
		c0.47-0.85,1.12-1.51,1.96-1.98c0.84-0.47,1.78-0.71,2.82-0.71c1.33,0,2.39,0.37,3.18,1.11c0.79,0.74,1.19,1.76,1.19,3.05
		C273.22,226.23,273.17,226.68,273.08,227.12"/>
	<path class="st7" d="M276.19,230.81c-0.71-0.35-1.25-0.84-1.63-1.47c-0.38-0.63-0.57-1.36-0.57-2.19c0-1.05,0.24-2,0.73-2.84
		c0.49-0.84,1.16-1.5,2.02-1.98c0.86-0.48,1.84-0.72,2.94-0.72c0.96,0,1.79,0.19,2.48,0.56c0.69,0.37,1.23,0.93,1.61,1.66l-1.9,0.98
		c-0.44-0.88-1.23-1.31-2.37-1.31c-0.63,0-1.19,0.15-1.68,0.45c-0.49,0.3-0.88,0.72-1.17,1.26c-0.28,0.54-0.43,1.15-0.43,1.84
		c0,0.75,0.22,1.33,0.66,1.75c0.44,0.42,1.06,0.63,1.87,0.63c0.55,0,1.04-0.11,1.48-0.33c0.44-0.22,0.81-0.55,1.12-0.99l1.64,1.1
		c-0.44,0.66-1.04,1.18-1.81,1.55c-0.77,0.37-1.61,0.56-2.52,0.56C277.72,231.34,276.9,231.16,276.19,230.81"/>
	<path class="st7" d="M294.69,221.72l-1.9,9.49h-2.12l0.21-1.05c-0.85,0.78-1.93,1.17-3.22,1.17c-1.04,0-1.88-0.28-2.5-0.85
		c-0.62-0.56-0.93-1.35-0.93-2.37c0-0.38,0.04-0.76,0.12-1.14l1.05-5.26h2.22l-1.05,5.21c-0.05,0.24-0.07,0.48-0.07,0.73
		c0,0.56,0.16,0.98,0.47,1.28c0.31,0.3,0.79,0.44,1.41,0.44c0.81,0,1.48-0.23,2.01-0.68c0.53-0.46,0.89-1.14,1.07-2.05l0.99-4.92
		H294.69z"/>
	<path class="st7" d="M300.32,221.91c0.6-0.2,1.31-0.3,2.14-0.3l-0.41,2.11c-0.2-0.04-0.38-0.05-0.55-0.05
		c-1.81,0-2.91,0.95-3.29,2.86l-0.94,4.68h-2.22l1.89-9.49h2.11l-0.25,1.23C299.22,222.46,299.72,222.12,300.32,221.91"/>
	<path class="st7" d="M305.55,223.99c-0.53,0.4-0.89,0.96-1.09,1.65h5.44c0.01-0.71-0.2-1.27-0.65-1.66c-0.45-0.4-1.04-0.6-1.79-0.6
		C306.71,223.39,306.07,223.59,305.55,223.99 M311.79,227.12h-7.54c0.04,1.55,0.95,2.33,2.74,2.33c0.54,0,1.05-0.09,1.53-0.26
		c0.47-0.17,0.88-0.41,1.21-0.72l0.92,1.55c-0.49,0.44-1.07,0.77-1.75,0.99c-0.68,0.22-1.4,0.33-2.14,0.33
		c-0.95,0-1.78-0.17-2.48-0.52c-0.71-0.34-1.25-0.83-1.63-1.47c-0.38-0.63-0.57-1.36-0.57-2.2c0-1.05,0.23-2.01,0.7-2.85
		c0.47-0.85,1.12-1.51,1.96-1.98c0.84-0.47,1.78-0.71,2.82-0.71c1.33,0,2.39,0.37,3.18,1.11c0.79,0.74,1.19,1.76,1.19,3.05
		C311.94,226.23,311.89,226.68,311.79,227.12"/>
	<path class="st7" d="M319.14,228.98c0.5-0.3,0.89-0.72,1.17-1.26c0.28-0.54,0.42-1.15,0.42-1.84c0-0.75-0.22-1.33-0.66-1.75
		c-0.44-0.42-1.05-0.63-1.85-0.63c-0.62,0-1.17,0.15-1.67,0.45c-0.5,0.3-0.89,0.72-1.16,1.26c-0.28,0.54-0.42,1.15-0.42,1.84
		c0,0.75,0.22,1.33,0.66,1.75c0.44,0.42,1.05,0.63,1.85,0.63C318.08,229.43,318.64,229.28,319.14,228.98 M324.52,218.02l-2.63,13.19
		h-2.11l0.2-0.98c-0.85,0.74-1.88,1.1-3.08,1.1c-0.78,0-1.49-0.17-2.12-0.5c-0.63-0.33-1.13-0.82-1.5-1.45
		c-0.37-0.63-0.55-1.38-0.55-2.23c0-1.07,0.23-2.02,0.69-2.86c0.46-0.84,1.1-1.5,1.91-1.97c0.81-0.47,1.72-0.71,2.73-0.71
		c0.75,0,1.39,0.12,1.95,0.37c0.55,0.25,0.98,0.62,1.29,1.1l1.01-5.07H324.52z"/>
	<path class="st7" d="M335.12,229.26c1.09,0,2.04-0.22,2.84-0.68c0.81-0.45,1.42-1.07,1.86-1.86c0.43-0.79,0.65-1.68,0.65-2.68
		c0-1.04-0.34-1.86-1.01-2.44c-0.68-0.59-1.66-0.88-2.95-0.88h-2.86l-1.71,8.53H335.12z M331.72,218.77h5.03
		c1.24,0,2.32,0.21,3.24,0.63c0.91,0.42,1.61,1.02,2.09,1.79c0.48,0.77,0.72,1.68,0.72,2.72c0,1.46-0.32,2.74-0.97,3.84
		c-0.65,1.1-1.56,1.96-2.73,2.56c-1.17,0.6-2.52,0.91-4.05,0.91h-5.81L331.72,218.77z"/>
	<path class="st7" d="M346.98,223.99c-0.53,0.4-0.89,0.96-1.09,1.65h5.44c0.01-0.71-0.2-1.27-0.65-1.66c-0.45-0.4-1.04-0.6-1.79-0.6
		C348.14,223.39,347.51,223.59,346.98,223.99 M353.23,227.12h-7.54c0.04,1.55,0.95,2.33,2.74,2.33c0.55,0,1.05-0.09,1.53-0.26
		c0.47-0.17,0.88-0.41,1.21-0.72l0.92,1.55c-0.49,0.44-1.07,0.77-1.75,0.99c-0.68,0.22-1.4,0.33-2.14,0.33
		c-0.95,0-1.78-0.17-2.48-0.52c-0.71-0.34-1.25-0.83-1.63-1.47c-0.38-0.63-0.57-1.36-0.57-2.2c0-1.05,0.23-2.01,0.7-2.85
		c0.47-0.85,1.12-1.51,1.96-1.98c0.84-0.47,1.78-0.71,2.82-0.71c1.33,0,2.39,0.37,3.18,1.11c0.79,0.74,1.19,1.76,1.19,3.05
		C353.37,226.23,353.32,226.68,353.23,227.12"/>
</g>

<polygon class="st1" points="356.49,218.02 358.71,218.02 356.08,231.21 353.86,231.21 "/>
<g>
	<defs>
		<rect id="SVGID_7_" width="595.28" height="841.89"/>
	</defs>
	<clipPath id="SVGID_8_">
		<use xlink:href="#SVGID_7_"  style="overflow:visible;"/>
	</clipPath>
	<path class="st8" d="M360.88,219.79c-0.25-0.24-0.37-0.54-0.37-0.88c0-0.4,0.14-0.74,0.42-1.01c0.28-0.27,0.64-0.41,1.09-0.41
		c0.39,0,0.71,0.12,0.96,0.35c0.25,0.23,0.37,0.51,0.37,0.84c0,0.44-0.14,0.79-0.42,1.07c-0.28,0.27-0.64,0.41-1.09,0.41
		C361.45,220.15,361.13,220.03,360.88,219.79 M360.22,221.72h2.22l-1.88,9.49h-2.22L360.22,221.72z"/>
</g>

<polygon class="st1" points="373.79,221.72 367.83,231.21 365.54,231.21 363.35,221.72 365.54,221.72 367.12,228.78 371.55,221.72"/>
<g>
	<defs>
		<rect id="SVGID_9_" width="595.28" height="841.89"/>
	</defs>
	<clipPath id="SVGID_10_">
		<use xlink:href="#SVGID_9_"  style="overflow:visible;"/>
	</clipPath>
	<path class="st9" d="M376.19,223.99c-0.53,0.4-0.89,0.96-1.09,1.65h5.44c0.01-0.71-0.2-1.27-0.65-1.66c-0.45-0.4-1.04-0.6-1.79-0.6
		C377.36,223.39,376.72,223.59,376.19,223.99 M382.44,227.12h-7.54c0.04,1.55,0.95,2.33,2.74,2.33c0.54,0,1.05-0.09,1.53-0.26
		c0.47-0.17,0.88-0.41,1.21-0.72l0.92,1.55c-0.49,0.44-1.07,0.77-1.75,0.99c-0.68,0.22-1.4,0.33-2.14,0.33
		c-0.95,0-1.78-0.17-2.48-0.52c-0.71-0.34-1.25-0.83-1.63-1.47c-0.38-0.63-0.57-1.36-0.57-2.2c0-1.05,0.23-2.01,0.7-2.85
		c0.47-0.85,1.12-1.51,1.96-1.98c0.84-0.47,1.78-0.71,2.82-0.71c1.33,0,2.39,0.37,3.18,1.11c0.79,0.74,1.19,1.76,1.19,3.05
		C382.58,226.23,382.54,226.68,382.44,227.12"/>
	<path class="st9" d="M388.34,221.91c0.6-0.2,1.31-0.3,2.14-0.3l-0.41,2.11c-0.2-0.04-0.39-0.05-0.55-0.05
		c-1.81,0-2.91,0.95-3.29,2.86l-0.94,4.68h-2.22l1.89-9.49h2.11l-0.25,1.23C387.24,222.46,387.75,222.12,388.34,221.91"/>
	<path class="st9" d="M401.34,221.72l-6.54,10.33c-0.65,1.03-1.27,1.74-1.86,2.14c-0.59,0.4-1.3,0.6-2.14,0.6
		c-0.48,0-0.94-0.08-1.4-0.23c-0.46-0.15-0.82-0.35-1.08-0.6l1.1-1.62c0.44,0.4,0.96,0.6,1.56,0.6c0.38,0,0.71-0.1,1-0.29
		c0.29-0.2,0.58-0.53,0.87-1l0.3-0.46l-2.24-9.46h2.22l1.6,7.04l4.39-7.04H401.34z"/>
	
</g>








</svg>
