<?xml version="1.0" encoding="utf-8"?>
<!-- Generator: Adobe Illustrator 15.0.2, SVG Export Plug-In . SVG Version: 6.00 Build 0)  -->
<!DOCTYPE svg PUBLIC "-//W3C//DTD SVG 1.1//EN" "http://www.w3.org/Graphics/SVG/1.1/DTD/svg11.dtd">
<svg version="1.1" id="Layer_1" xmlns="http://www.w3.org/2000/svg" xmlns:xlink="http://www.w3.org/1999/xlink" x="0px" y="0px"
	 width="1920px" height="1920px" viewBox="0 0 1920 1920" enable-background="new 0 0 1920 1920" xml:space="preserve">
<rect x="266.488" y="291" fill="#EDEDEE" width="1357.586" height="640"/>
<path fill="#FFFFFF" d="M1367.837,569.598c38.61,0,58.087-10.285,76.901-20.229c17.036-9.008,33.137-17.515,65.932-17.515
	s48.896,8.507,65.932,17.515c18.814,9.943,38.269,20.229,76.901,20.229c3.329,0,6.477-0.091,9.556-0.251l4.789-23.923
	c-4.447,0.388-9.122,0.684-14.322,0.684c-32.795,0-48.896-8.506-65.932-17.491c-18.814-9.943-38.268-20.229-76.9-20.229
	c-38.634,0-58.087,10.286-76.902,20.229c-17.035,9.008-33.137,17.491-65.932,17.491c-32.794,0-48.872-8.506-65.908-17.491
	c-18.814-9.943-38.269-20.229-76.879-20.229v23.49c32.795,0,48.873,8.507,65.909,17.515
	C1309.773,559.313,1329.226,569.598,1367.837,569.598"/>
<path fill="#FFFFFF" d="M1367.837,522.094c38.61,0,58.087-10.286,76.901-20.229c17.036-9.008,33.137-17.492,65.932-17.492
	s48.896,8.507,65.932,17.492c18.814,9.943,38.269,20.229,76.901,20.229c7.001,0,13.341-0.343,19.18-0.958l4.88-24.425
	c-7.001,1.186-14.823,1.915-24.082,1.915c-32.795,0-48.896-8.507-65.932-17.492c-18.815-9.943-38.269-20.229-76.901-20.229
	c-38.634,0-58.087,10.285-76.901,20.229c-17.036,9.009-33.137,17.492-65.932,17.492s-48.873-8.507-65.909-17.492
	c-18.814-9.943-38.269-20.229-76.878-20.229v23.49c32.795,0,48.872,8.507,65.908,17.492
	C1309.773,511.808,1329.226,522.094,1367.837,522.094"/>
<path fill="#FFFFFF" d="M1653.48,617.08l4.721-23.65c-1.597,0.046-3.057,0.16-4.721,0.16c-32.795,0-48.896-8.507-65.932-17.492
	c-18.815-9.943-38.291-20.229-76.901-20.229s-58.087,10.285-76.901,20.229c-17.036,9.008-33.137,17.492-65.932,17.492
	s-48.873-8.507-65.909-17.492c-18.814-9.943-38.269-20.229-76.878-20.229v23.489c32.795,0,48.872,8.507,65.908,17.516
	c18.815,9.943,38.269,20.229,76.879,20.229s58.086-10.285,76.901-20.229c17.036-9.009,33.137-17.516,65.932-17.516
	c32.794,0,48.896,8.507,65.931,17.516C1595.393,606.818,1614.847,617.08,1653.48,617.08"/>
</svg>
